<?xml version="1.0" standalone="no"?>
<!DOCTYPE svg PUBLIC "-//W3C//DTD SVG 20010904//EN"
 "http://www.w3.org/TR/2001/REC-SVG-20010904/DTD/svg10.dtd">
<svg version="1.0" xmlns="http://www.w3.org/2000/svg"
 width="356.000000pt" height="356.000000pt" viewBox="0 0 356.000000 356.000000"
 preserveAspectRatio="xMidYMid meet">
<metadata>
Created by potrace 1.14, written by Peter Selinger 2001-2017
</metadata>
<g transform="translate(0.000000,356.000000) scale(0.100000,-0.100000)"
fill="#000000" stroke="none">
<path d="M2718 3445 c-2 -2 -55 -6 -118 -10 -63 -4 -128 -9 -145 -10 -16 -1
-84 -6 -150 -10 -66 -4 -136 -9 -155 -10 -19 -2 -82 -6 -140 -9 -58 -4 -125
-8 -150 -11 -25 -2 -92 -7 -150 -10 -58 -3 -130 -8 -160 -10 -30 -2 -93 -7
-140 -10 -108 -6 -231 -15 -295 -20 -27 -2 -95 -7 -150 -10 -55 -3 -118 -8
-140 -10 -22 -2 -94 -6 -160 -10 -157 -9 -244 -27 -333 -70 -154 -77 -268
-219 -313 -393 -18 -73 -19 -117 -18 -1166 0 -1031 1 -1095 19 -1162 16 -62
43 -122 85 -194 39 -65 147 -156 235 -198 133 -64 95 -62 1085 -62 879 0 903
1 975 21 192 53 342 185 408 359 24 65 68 231 87 328 2 13 7 32 10 42 3 10 8
27 10 37 7 34 125 518 140 573 8 30 16 66 19 80 2 14 20 88 40 165 19 77 37
151 40 165 3 14 9 41 14 60 5 19 26 103 45 185 20 83 50 206 67 275 17 69 33
136 36 150 3 14 19 79 36 144 58 230 32 398 -90 561 -81 108 -212 195 -341
225 -48 11 -196 22 -203 15z"/>
</g>
</svg>
